<?xml version="1.0" encoding="utf-8"?>
<!-- Generator: Adobe Illustrator 23.0.3, SVG Export Plug-In . SVG Version: 6.00 Build 0)  -->
<svg version="1.1" id="Layer_1" xmlns="http://www.w3.org/2000/svg" xmlns:xlink="http://www.w3.org/1999/xlink" x="0px" y="0px"
	 viewBox="0 0 329.71 182.82" style="enable-background:new 0 0 329.71 182.82;" xml:space="preserve">
<style type="text/css">
	.st0{fill:#FFFFFF;}
	
		.st1{clip-path:url(#SVGID_4_);fill:url(#SVGID_5_);stroke:#979798;stroke-width:0.4265;stroke-linecap:round;stroke-linejoin:round;stroke-miterlimit:10;}
</style>
<g>
	<g>
		<path class="st0" d="M59.44,164.39c-2.99,0-5.63-0.7-7.84-2.09c-0.6-0.38-0.86-1.13-0.6-1.8c5.38-13.96,11.12-33.22,17.05-57.25
			c4.16-17.08,6.31-30.58,6.36-40.12c0-3.71-0.32-6.88-0.96-9.42c-0.11-0.44-0.01-0.91,0.26-1.27c2.98-3.91,8.33-6.39,15.91-7.39
			c0.7-0.06,1.32-0.09,1.92-0.09c3.01,0,5.65,0.7,7.85,2.09c0.43,0.27,0.7,0.75,0.7,1.26c0,9.54-2.88,26.26-8.55,49.7
			c-0.38,1.59-0.76,3.15-1.14,4.69c4.15-0.6,8.52-2.82,13-6.62c4.85-4.12,8.45-9.05,10.69-14.67c2.27-5.68,3.42-12.99,3.42-21.72
			c0-4.54-0.76-8.69-2.27-12.35c-1.47-3.58-3.82-6.25-7.19-8.19c-2.65-1.52-6.08-2.29-10.21-2.29c-1.08,0-2.23,0.05-3.42,0.16
			c-7.52,0.67-14.28,3.04-20.1,7.04c-5.87,4.04-10.74,9-14.46,14.76c-3.73,5.78-6.27,11.81-7.57,17.95
			c-0.59,2.79-0.88,5.52-0.88,8.1c0,3.02,0.41,5.95,1.22,8.71c1.49,5.02,4.41,8.77,8.94,11.46c0.49,0.29,0.77,0.83,0.72,1.4
			s-0.41,1.06-0.94,1.27c-0.03,0.01-0.09,0.04-0.18,0.11c-0.04,0.03-0.09,0.07-0.14,0.09c-1.35,0.83-2.72,1.52-4.06,2.06
			c-1.43,0.57-3.21,0.94-5.46,1.14c-0.6,0.05-1.19,0.08-1.76,0.08c-4.56,0-8.26-1.68-11-5c-2.97-3.59-4.67-8.44-5.05-14.44
			c-0.06-0.84-0.1-1.71-0.1-2.56c0-5.07,0.98-10.66,2.91-16.63c2.17-6.84,5.84-13.68,10.89-20.33c5.05-6.65,11.69-12.61,19.74-17.72
			c4.82-2.93,10.54-5.49,17.03-7.64c6.52-2.15,13.14-3.54,19.69-4.12c2.29-0.2,4.51-0.31,6.59-0.31c6.65,0,12.29,1.06,16.78,3.15
			c5.96,2.77,10.34,6.85,13.01,12.12c2.62,5.18,3.96,11.03,3.96,17.4c0,8.38-1.28,15.95-3.8,22.5c-2.52,6.55-5.4,11.73-8.54,15.4
			c-3.08,3.92-7.53,7.94-13.18,11.92c-2.38,1.71-4.97,3.14-7.72,4.25c0.87,5.79,2.39,12.18,4.53,19.03
			c4.2,13.44,7.68,15.45,9.39,15.45c0.07,0,0.14,0,0.21-0.01c0.46-0.04,3.06-0.94,9.82-14.83l1.58-3.26
			c0.21-4.83,1.28-11.42,3.2-19.6c1.8-7.04,4.3-13.79,7.44-20.1c1.84-3.6,4.16-6.76,6.88-9.41c4.23-4.35,9.74-6.87,16.37-7.47
			c0.84-0.07,1.69-0.11,2.51-0.11c3.9,0,7.65,0.84,11.16,2.49c2.65,1.4,4.79,3.33,6.42,5.77c1.65,2.49,2.49,5.56,2.49,9.14
			c0,4.13-1.1,8.39-3.27,12.67c-1.85,3.66-4.3,6.88-7.29,9.56c-3.76,3.44-8.06,5.41-12.76,5.83c-0.34,0.03-0.68,0.05-1.02,0.05
			c-1.92,0-3.71-0.51-5.34-1.51c-0.95,5.1-1.43,8.71-1.43,10.76c0,3.44,0.39,6.1,1.16,7.9c1.43,2.9,3.08,3.24,4.19,3.24
			c0.14,0,0.28-0.01,0.43-0.02c3.59-0.32,7.01-1.77,10.18-4.31c3.18-2.46,6.16-5.58,8.88-9.31c1.52-2.11,3.01-4.4,4.42-6.8
			c0.54-3.77,1.4-8.19,2.57-13.16c1.8-7.05,4.3-13.8,7.44-20.1c1.84-3.6,4.16-6.76,6.88-9.41c4.24-4.36,9.75-6.88,16.37-7.46
			c0.85-0.08,1.7-0.11,2.52-0.11c3.89,0,7.64,0.84,11.15,2.49c2.65,1.4,4.79,3.33,6.41,5.77c1.65,2.49,2.49,5.56,2.49,9.14
			c0,4.13-1.1,8.39-3.27,12.66c-1.84,3.66-4.3,6.88-7.29,9.56c-3.76,3.44-8.06,5.41-12.76,5.83c-0.34,0.03-0.68,0.05-1.02,0.05
			c-1.92,0-3.71-0.51-5.34-1.51c-0.95,5.1-1.43,8.71-1.43,10.76c0,3.44,0.39,6.1,1.15,7.9c1.06,2.15,2.45,3.24,4.19,3.24
			c0.14,0,0.28-0.01,0.43-0.02c3.58-0.32,7.01-1.77,10.18-4.31c3.18-2.46,6.16-5.59,8.88-9.31c2.3-3.19,4.44-6.65,6.37-10.29
			c0.78-4,1.74-8.43,2.85-13.16c3.62-15.4,7.56-30.66,11.73-45.35c4.14-14.63,7.34-25.38,9.49-31.96c0.12-0.38,0.39-0.69,0.74-0.87
			c4.79-2.44,9.59-3.89,14.27-4.31c0.72-0.06,1.43-0.1,2.1-0.1c1.33,0,2.59,0.13,3.74,0.38c1.9,0.42,3.4,1.24,4.46,2.43
			c0.36,0.4,0.47,0.97,0.3,1.47c-1.9,5.57-4.99,15.67-9.18,30.03c-4.22,14.47-8.28,29.49-12.06,44.66
			c-3.77,15.11-5.68,25.82-5.68,31.81c0.05,2.13,0.52,2.53,0.52,2.54c0.43-0.04,1.88-0.47,4.74-4.48c2.27-3.2,4.61-7.05,6.94-11.44
			c2.37-4.47,4.51-8.82,6.36-12.92c1.86-4.11,3.23-7.37,4.08-9.69c0.22-0.6,0.78-0.98,1.4-0.98c0.09,0,0.17,0.01,0.26,0.02
			c0.71,0.13,1.23,0.75,1.23,1.47c0,0.84-0.2,2.61-1.94,8.29c-1.26,4.1-3.01,8.87-5.22,14.18c-2.23,5.36-4.81,10.64-7.67,15.7
			c-2.91,5.15-6.1,9.6-9.5,13.24c-3.58,3.82-7.27,5.92-10.98,6.25c-0.62,0.05-1.24,0.08-1.82,0.08c-4.71,0-8.28-1.77-10.62-5.25
			c-2.11-3.18-3.18-6.94-3.18-11.19c0-1.19,0.05-2.5,0.15-3.92c-3.5,5.77-7.63,10.91-12.27,15.28c-5.45,5.17-11.58,8.23-18.23,9.07
			l-0.51,0.05c-0.73,0.07-1.47,0.1-2.18,0.1c-5.49,0-10.38-1.95-14.52-5.79c-2.02-2.04-3.6-4.67-4.74-7.85
			c-0.66-1.86-1.13-3.96-1.41-6.28c-3.54,5.87-7.71,11.08-12.41,15.49c-5.44,5.17-11.57,8.23-18.22,9.07l-0.51,0.05
			c-0.73,0.06-1.46,0.1-2.18,0.1c-5.49,0-10.38-1.95-14.52-5.79c-2.02-2.04-3.6-4.66-4.74-7.84c-0.09-0.27-0.19-0.54-0.27-0.81
			c-3.92,8.71-7.2,14.43-9.99,17.42c-3.54,3.79-7.25,5.88-11.03,6.21c-0.59,0.05-1.17,0.08-1.74,0.08c-8.32,0-14.5-5.51-18.37-16.39
			c-3.81-10.71-6.5-21.74-8-32.82c-0.2-0.01-0.4-0.02-0.6-0.03c-4.15,17.18-7.68,31.85-10.59,44.03c-0.06,0.25-0.18,0.48-0.35,0.66
			c-2.95,3.2-7.11,5.45-12.38,6.69c-1.21,0.3-2.4,0.5-3.5,0.6C60.67,164.36,60.04,164.39,59.44,164.39z M164.72,105.93
			c0.51,0.26,1,0.39,1.44,0.39c0.07,0,0.14,0,0.2-0.01c1.64-0.14,3.27-1.45,4.82-3.87c1.75-2.61,3.1-5.58,4.03-8.85
			c1.29-5.08,1.96-9.02,1.96-11.67v-0.37c0-1.25-0.15-1.84-0.25-2.09c-0.76,0.14-1.54,0.64-2.33,1.5c-1.03,1.13-2.05,2.67-3.02,4.58
			c-1.6,3.16-3.08,6.94-4.39,11.23C166.27,99.81,165.44,102.89,164.72,105.93z M218.7,101.13c0.51,0.26,1,0.38,1.44,0.38
			c0.07,0,0.14,0,0.2-0.01c1.64-0.14,3.27-1.45,4.82-3.87c1.75-2.61,3.11-5.58,4.03-8.85c1.29-5.08,1.96-9.02,1.96-11.67v-0.37
			c0-1.25-0.15-1.84-0.25-2.09c-0.76,0.14-1.54,0.64-2.33,1.5c-1.03,1.12-2.05,2.66-3.02,4.57c-1.6,3.16-3.07,6.94-4.39,11.23
			C220.26,95.01,219.43,98.09,218.7,101.13z"/>
		<path class="st0" d="M288.24,11.78c1.23,0,2.38,0.11,3.42,0.34c1.58,0.35,2.81,1,3.66,1.97c-1.89,5.53-4.96,15.57-9.2,30.1
			c-4.24,14.53-8.27,29.43-12.08,44.72c-3.81,15.29-5.72,26.01-5.72,32.17c0.06,2.69,0.73,4.02,2.03,4.02c0.06,0,0.11,0,0.17-0.01
			c1.52-0.14,3.45-1.83,5.77-5.09c2.31-3.25,4.66-7.12,7.05-11.61c2.37-4.48,4.51-8.82,6.4-13.01c1.89-4.19,3.26-7.46,4.12-9.79
			c0,1.16-0.63,3.78-1.88,7.85c-1.25,4.08-2.97,8.76-5.17,14.05c-2.2,5.29-4.72,10.47-7.59,15.54c-2.87,5.08-5.97,9.39-9.29,12.95
			c-3.33,3.56-6.67,5.49-10.02,5.79c-0.58,0.05-1.14,0.08-1.69,0.08c-4.2,0-7.33-1.53-9.39-4.59c-1.95-2.93-2.93-6.39-2.93-10.35
			c0-2.94,0.33-6.64,0.96-11.08c-0.91,1.73-1.85,3.47-2.88,5.21c-3.6,6.18-7.84,11.56-12.71,16.14c-5.25,4.98-11.04,7.87-17.39,8.68
			l-0.45,0.04c-0.69,0.06-1.38,0.09-2.05,0.09c-5.13,0-9.63-1.79-13.51-5.39c-1.83-1.85-3.28-4.27-4.35-7.26
			c-1.07-2.99-1.6-6.61-1.6-10.88c0,0,0-0.01,0-0.01c-0.61,1.12-1.26,2.25-1.92,3.38c-3.6,6.18-7.84,11.56-12.72,16.14
			c-5.24,4.98-11.04,7.87-17.39,8.68l-0.45,0.04c-0.69,0.06-1.38,0.09-2.05,0.09c-5.13,0-9.63-1.8-13.51-5.39
			c-1.83-1.85-3.28-4.27-4.35-7.25c-0.54-1.53-0.95-3.22-1.21-5.09c-4.63,10.84-8.48,17.9-11.55,21.18
			c-3.29,3.52-6.65,5.44-10.07,5.74c-0.54,0.05-1.08,0.07-1.61,0.07c-7.66,0-13.31-5.13-16.97-15.4
			c-3.91-10.97-6.59-22.12-8.05-33.46c0.06-0.13,0.15-0.23,0.27-0.3c-1.16-0.02-2.29-0.07-3.38-0.15
			c-4.27,17.7-7.9,32.79-10.89,45.25c-2.75,2.99-6.62,5.07-11.63,6.25c-1.16,0.29-2.26,0.48-3.29,0.57
			c-0.6,0.05-1.18,0.08-1.74,0.08c-2.73,0-5.08-0.62-7.05-1.86c5.43-14.08,11.13-33.22,17.11-57.43
			c4.21-17.27,6.35-30.76,6.41-40.47c0-3.84-0.33-7.11-1.01-9.79c2.74-3.6,7.72-5.87,14.92-6.81c0.59-0.05,1.17-0.08,1.72-0.08
			c2.73,0,5.09,0.62,7.06,1.86c0,9.46-2.83,25.91-8.51,49.34c-0.55,2.31-1.1,4.55-1.65,6.73l1.2-0.1c4.75-0.42,9.66-2.78,14.73-7.07
			c5.06-4.29,8.77-9.38,11.12-15.26c2.35-5.89,3.52-13.31,3.52-22.28c0-4.76-0.79-9.06-2.38-12.92c-1.59-3.86-4.19-6.83-7.83-8.91
			c-2.89-1.66-6.54-2.49-10.95-2.49c-1.13,0-2.32,0.05-3.55,0.16c-7.81,0.7-14.75,3.13-20.82,7.29C67.41,46.98,62.46,52.05,58.61,58
			c-3.84,5.96-6.44,12.1-7.78,18.45c-0.61,2.92-0.92,5.72-0.92,8.4c0,3.17,0.43,6.22,1.28,9.13c1.58,5.35,4.79,9.46,9.61,12.32
			c-0.18,0.07-0.37,0.18-0.55,0.32c-1.28,0.78-2.56,1.43-3.84,1.94c-1.29,0.51-2.96,0.86-5.04,1.04c-0.56,0.05-1.1,0.07-1.63,0.07
			c-4.11,0-7.39-1.48-9.85-4.45c-2.78-3.35-4.35-7.88-4.71-13.58c-0.06-0.79-0.09-1.61-0.09-2.46c0-4.94,0.95-10.33,2.84-16.17
			c2.13-6.71,5.69-13.35,10.66-19.89c4.97-6.54,11.42-12.33,19.35-17.37c4.7-2.86,10.26-5.35,16.7-7.48
			c6.43-2.13,12.89-3.48,19.35-4.05c2.26-0.2,4.41-0.3,6.45-0.3c6.45,0,11.84,1,16.15,3.01c5.67,2.64,9.78,6.45,12.31,11.44
			c2.53,4.99,3.79,10.57,3.79,16.73c0,8.23-1.24,15.56-3.71,21.97c-2.47,6.41-5.23,11.4-8.28,14.97c-3.05,3.87-7.35,7.76-12.9,11.67
			c-2.62,1.88-5.46,3.39-8.5,4.51c0.85,6.21,2.44,13.02,4.76,20.44c3.43,11,7.04,16.5,10.81,16.5c0.11,0,0.23-0.01,0.35-0.02
			c2.38-0.21,6.05-5.43,11.03-15.67c0.6-1.23,1.17-2.41,1.72-3.55c0.17-4.79,1.23-11.33,3.18-19.63c1.77-6.93,4.21-13.52,7.32-19.77
			c1.77-3.45,3.96-6.45,6.59-9c4.02-4.14,9.18-6.49,15.46-7.05c0.8-0.07,1.6-0.11,2.38-0.11c3.7,0,7.2,0.78,10.53,2.35
			c2.37,1.25,4.31,3,5.81,5.25c1.49,2.25,2.24,5.02,2.24,8.31c0,3.91-1.03,7.91-3.11,11.99c-1.77,3.51-4.09,6.56-6.95,9.13
			c-3.54,3.25-7.5,5.06-11.9,5.45c-0.3,0.03-0.59,0.04-0.88,0.04c-2.38,0-4.49-0.9-6.35-2.69c-1.28,6.51-1.92,11-1.92,13.44
			c0,3.66,0.42,6.49,1.28,8.49c1.36,2.76,3.21,4.15,5.57,4.15c0.18,0,0.37-0.01,0.56-0.03c3.9-0.35,7.56-1.89,10.98-4.64
			c3.3-2.55,6.34-5.75,9.15-9.6c1.65-2.29,3.2-4.69,4.65-7.18c0.53-3.78,1.38-8.21,2.59-13.31c1.77-6.93,4.21-13.52,7.32-19.77
			c1.77-3.45,3.96-6.45,6.59-9c4.02-4.14,9.18-6.49,15.46-7.05c0.81-0.07,1.6-0.11,2.39-0.11c3.69,0,7.19,0.78,10.52,2.35
			c2.37,1.25,4.31,3,5.81,5.25c1.49,2.25,2.24,5.02,2.24,8.31c0,3.9-1.03,7.9-3.11,11.99c-1.77,3.51-4.09,6.56-6.95,9.13
			c-3.54,3.25-7.5,5.06-11.9,5.45c-0.3,0.03-0.59,0.04-0.89,0.04c-2.38,0-4.49-0.9-6.34-2.69c-1.28,6.52-1.92,11-1.92,13.44
			c0,3.66,0.42,6.49,1.27,8.49c1.36,2.76,3.21,4.15,5.57,4.15c0.18,0,0.37-0.01,0.56-0.03c3.9-0.34,7.56-1.89,10.98-4.63
			c3.3-2.55,6.34-5.75,9.15-9.6c2.4-3.34,4.6-6.9,6.59-10.67c0.78-4.02,1.74-8.46,2.88-13.32c3.63-15.45,7.54-30.55,11.71-45.28
			c4.18-14.74,7.33-25.37,9.47-31.91c4.64-2.36,9.21-3.75,13.73-4.15C286.95,11.81,287.61,11.78,288.24,11.78 M220.14,103.01
			c0.11,0,0.23-0.01,0.34-0.02c2.13-0.19,4.12-1.71,5.95-4.55c1.83-2.72,3.24-5.81,4.21-9.25c1.34-5.24,2.01-9.27,2.01-12.07v-0.37
			c0-2.41-0.51-3.61-1.53-3.61c-0.04,0-0.08,0-0.12,0.01c-1.22,0.11-2.39,0.78-3.52,2.01c-1.13,1.23-2.21,2.86-3.25,4.91
			c-1.65,3.26-3.14,7.08-4.48,11.47c-1.04,3.45-1.95,6.89-2.74,10.31C218.1,102.62,219.15,103.01,220.14,103.01 M166.16,107.81
			c0.11,0,0.22-0.01,0.34-0.01c2.14-0.19,4.12-1.71,5.95-4.55c1.83-2.72,3.24-5.81,4.21-9.25c1.34-5.25,2.01-9.27,2.01-12.07v-0.37
			c0-2.41-0.51-3.61-1.53-3.61c-0.04,0-0.08,0-0.12,0.01c-1.22,0.11-2.39,0.78-3.52,2.01c-1.13,1.23-2.21,2.87-3.25,4.91
			c-1.65,3.26-3.14,7.08-4.48,11.47c-1.04,3.45-1.95,6.89-2.74,10.31C164.11,107.42,165.16,107.81,166.16,107.81 M293.86,85.59
			L293.86,85.59 M288.24,8.79C288.24,8.79,288.24,8.79,288.24,8.79C288.24,8.79,288.24,8.79,288.24,8.79c-0.72,0-1.47,0.03-2.23,0.1
			c-4.88,0.43-9.86,1.94-14.82,4.46c-0.7,0.36-1.24,0.98-1.48,1.73c-2.16,6.61-5.36,17.38-9.5,32.02
			c-4.17,14.7-8.12,29.98-11.75,45.41c-1.09,4.67-2.04,9.03-2.82,13c-1.87,3.51-3.94,6.85-6.16,9.93c-2.62,3.6-5.5,6.62-8.55,8.98
			c-0.01,0.01-0.03,0.02-0.04,0.03c-2.98,2.39-6.04,3.69-9.37,3.99c-0.1,0.01-0.2,0.01-0.3,0.01c-0.49,0-1.65,0-2.85-2.4
			c-0.47-1.13-1.01-3.29-1.01-7.25c0-1.23,0.2-3.68,1.05-8.54c1.33,0.52,2.74,0.78,4.22,0.78c0.38,0,0.77-0.02,1.15-0.05
			c5.04-0.45,9.63-2.54,13.65-6.22c3.1-2.79,5.67-6.15,7.6-9.99c2.27-4.48,3.43-8.96,3.43-13.33c0-3.88-0.92-7.23-2.74-9.96
			c-1.77-2.66-4.09-4.75-6.9-6.24c-0.04-0.02-0.08-0.04-0.12-0.06c-3.71-1.74-7.67-2.63-11.79-2.63c-0.87,0-1.77,0.04-2.66,0.12
			c-6.97,0.62-12.79,3.28-17.31,7.91c-2.83,2.76-5.23,6.04-7.13,9.76c-3.2,6.42-5.73,13.27-7.55,20.4c0,0.02-0.01,0.04-0.01,0.06
			c-1.15,4.88-2.01,9.25-2.55,12.99c-1.34,2.27-2.75,4.43-4.2,6.44c-2.63,3.6-5.51,6.63-8.55,8.98c-0.02,0.01-0.03,0.02-0.05,0.04
			c-2.97,2.39-6.04,3.7-9.37,3.99c-0.1,0.01-0.2,0.01-0.3,0.01c-0.49,0-1.64,0-2.85-2.41c-0.47-1.13-1.01-3.29-1.01-7.24
			c0-1.23,0.2-3.69,1.05-8.54c1.33,0.52,2.74,0.78,4.22,0.78c0.38,0,0.77-0.02,1.15-0.05c5.04-0.45,9.63-2.54,13.65-6.22
			c3.1-2.78,5.67-6.15,7.6-9.98c2.27-4.48,3.43-8.97,3.43-13.33c0-3.87-0.92-7.23-2.74-9.96c-1.77-2.66-4.09-4.75-6.9-6.24
			c-0.04-0.02-0.08-0.04-0.12-0.06c-3.71-1.75-7.68-2.63-11.8-2.63c-0.87,0-1.76,0.04-2.64,0.12c-6.98,0.63-12.8,3.29-17.31,7.91
			c-2.83,2.76-5.23,6.04-7.14,9.75c-3.2,6.43-5.74,13.28-7.56,20.39c-0.01,0.02-0.01,0.04-0.01,0.06
			c-1.93,8.21-2.98,14.63-3.23,19.57l-0.32,0.65c-0.37,0.76-0.74,1.53-1.13,2.33c-5.68,11.68-8.21,13.69-8.75,14
			c-0.56-0.05-3.71-0.97-7.91-14.4c-1.98-6.33-3.42-12.26-4.3-17.67c2.45-1.08,4.78-2.41,6.94-3.97c5.72-4.03,10.26-8.14,13.47-12.2
			c3.24-3.8,6.19-9.11,8.76-15.79c2.59-6.73,3.91-14.48,3.91-23.04c0-6.61-1.39-12.69-4.12-18.08c-2.83-5.57-7.44-9.88-13.71-12.8
			c-4.68-2.18-10.54-3.28-17.41-3.28c-2.12,0-4.38,0.11-6.72,0.31c-6.66,0.59-13.4,2-20.03,4.19c-6.6,2.18-12.42,4.79-17.31,7.76
			c-0.02,0.01-0.03,0.02-0.05,0.03c-8.2,5.2-14.97,11.29-20.13,18.08c-5.16,6.79-8.91,13.79-11.13,20.79
			c-1.97,6.1-2.98,11.85-2.98,17.08c0,0.89,0.03,1.79,0.1,2.69c0.4,6.28,2.22,11.43,5.39,15.26c3.04,3.67,7.12,5.53,12.15,5.53
			c0.62,0,1.25-0.03,1.89-0.09c2.39-0.21,4.31-0.62,5.88-1.24c1.43-0.57,2.87-1.3,4.29-2.17c0.07-0.05,0.15-0.09,0.22-0.15
			c0.99-0.45,1.67-1.4,1.75-2.49c0.09-1.13-0.47-2.22-1.45-2.8c-4.19-2.49-6.9-5.96-8.27-10.61c-0.77-2.62-1.16-5.41-1.16-8.28
			c0-2.47,0.29-5.09,0.85-7.79c1.26-5.95,3.73-11.82,7.36-17.44c3.61-5.59,8.34-10.42,14.05-14.34c5.61-3.85,12.13-6.13,19.39-6.78
			c1.14-0.1,2.25-0.15,3.29-0.15c3.86,0,7.04,0.7,9.46,2.09c3.07,1.76,5.21,4.2,6.55,7.46c1.43,3.47,2.15,7.44,2.15,11.78
			c0,8.54-1.11,15.66-3.31,21.17c-2.15,5.39-5.61,10.13-10.27,14.09c-3.45,2.92-6.81,4.86-10.01,5.79c0.19-0.77,0.38-1.56,0.57-2.38
			c5.78-23.87,8.59-40.24,8.59-50.04c0-1.03-0.53-1.98-1.4-2.53c-2.45-1.54-5.35-2.32-8.65-2.32c-0.64,0-1.31,0.03-1.99,0.09
			c-0.04,0-0.09,0.01-0.13,0.01c-7.98,1.05-13.67,3.73-16.9,7.96c-0.55,0.72-0.74,1.66-0.52,2.54c0.61,2.42,0.92,5.47,0.92,9.06
			c-0.06,9.4-2.18,22.79-6.32,39.76c-5.92,23.96-11.64,43.16-17,57.06c-0.51,1.33-0.01,2.84,1.2,3.6c2.45,1.54,5.35,2.32,8.63,2.32
			c0.65,0,1.33-0.03,2.01-0.09c1.17-0.1,2.43-0.32,3.74-0.64c5.54-1.3,9.96-3.7,13.11-7.13c0.34-0.37,0.59-0.83,0.71-1.33
			c2.62-10.93,5.7-23.74,9.18-38.18c1.59,9.17,3.99,18.27,7.15,27.15c4.11,11.53,10.76,17.38,19.78,17.38
			c0.61,0,1.24-0.03,1.87-0.08c4.16-0.37,8.19-2.62,11.99-6.68c2.54-2.72,5.44-7.54,8.8-14.64c1.09,2.3,2.43,4.26,4.01,5.86
			c0.03,0.03,0.06,0.06,0.09,0.09c4.43,4.1,9.66,6.19,15.54,6.19c0.76,0,1.53-0.04,2.31-0.1l0.44-0.04c0.04,0,0.08-0.01,0.12-0.01
			c6.96-0.89,13.38-4.08,19.06-9.48c3.9-3.66,7.44-7.86,10.57-12.52c0.23,0.96,0.5,1.87,0.81,2.73c1.21,3.39,2.91,6.2,5.04,8.35
			c0.03,0.03,0.06,0.06,0.09,0.09c4.43,4.1,9.66,6.18,15.54,6.18c0.76,0,1.53-0.04,2.31-0.1l0.45-0.04c0.04,0,0.07-0.01,0.11-0.01
			c6.96-0.89,13.38-4.08,19.07-9.48c3.51-3.3,6.74-7.04,9.63-11.16c0.2,4.03,1.34,7.63,3.39,10.73c2.6,3.88,6.71,5.92,11.87,5.92
			c0.63,0,1.29-0.03,1.95-0.09c4.09-0.36,8.11-2.62,11.94-6.72c3.47-3.72,6.74-8.27,9.71-13.52c2.89-5.12,5.5-10.45,7.75-15.86
			c2.23-5.36,4-10.18,5.27-14.32c1.69-5.5,1.98-7.5,2.01-8.56c0-0.05,0-0.11,0-0.17c0-1.62-1.28-2.93-2.89-2.98
			c-0.03,0-0.07,0-0.1,0c-0.14,0-0.29,0.01-0.42,0.03c0,0,0,0,0,0c0,0,0,0,0,0c-0.52,0.08-1,0.29-1.4,0.6
			c-0.26,0.2-0.49,0.45-0.68,0.74c-0.13,0.2-0.24,0.42-0.32,0.65c-0.84,2.28-2.19,5.48-4.01,9.53c-1.84,4.07-3.96,8.39-6.32,12.84
			c-2.3,4.33-4.6,8.13-6.84,11.28c-1.11,1.55-1.94,2.48-2.54,3.04c0-0.09-0.01-0.17-0.01-0.27c0.01-5.88,1.9-16.45,5.64-31.42
			c3.78-15.15,7.83-30.15,12.04-44.6c4.18-14.34,7.26-24.42,9.16-29.97c0.35-1.02,0.12-2.14-0.59-2.95
			c-1.28-1.44-3.04-2.41-5.25-2.9C291.05,8.93,289.69,8.79,288.24,8.79L288.24,8.79L288.24,8.79z M220.52,99.97
			c0.63-2.51,1.32-5.05,2.08-7.58c1.28-4.19,2.73-7.89,4.29-10.99c0.91-1.78,1.84-3.2,2.77-4.22c-0.01,2.52-0.65,6.29-1.91,11.23
			c-0.89,3.11-2.17,5.92-3.81,8.36c-0.01,0.02-0.02,0.04-0.03,0.05C223.09,98.12,221.85,99.66,220.52,99.97L220.52,99.97z
			 M166.54,104.77c0.63-2.52,1.33-5.06,2.08-7.58c1.28-4.19,2.73-7.89,4.29-10.98c0.9-1.77,1.83-3.2,2.77-4.22
			c-0.01,2.52-0.65,6.3-1.91,11.23c-0.89,3.11-2.17,5.92-3.81,8.36c-0.01,0.02-0.02,0.04-0.03,0.05
			C169.1,102.92,167.86,104.46,166.54,104.77L166.54,104.77z"/>
	</g>
	<g>
		<path class="st0" d="M59.44,164.39c-2.99,0-5.63-0.7-7.84-2.09c-0.6-0.38-0.86-1.13-0.6-1.8c5.38-13.96,11.12-33.22,17.05-57.25
			c4.16-17.08,6.31-30.58,6.36-40.12c0-3.71-0.32-6.88-0.96-9.42c-0.11-0.44-0.01-0.91,0.26-1.27c2.98-3.91,8.33-6.39,15.91-7.39
			c0.7-0.06,1.32-0.09,1.92-0.09c3.01,0,5.65,0.7,7.85,2.09c0.43,0.27,0.7,0.75,0.7,1.26c0,9.54-2.88,26.26-8.55,49.7
			c-0.38,1.59-0.76,3.15-1.14,4.69c4.15-0.6,8.52-2.82,13-6.62c4.85-4.12,8.45-9.05,10.69-14.67c2.27-5.68,3.42-12.99,3.42-21.72
			c0-4.54-0.76-8.69-2.27-12.35c-1.47-3.58-3.82-6.25-7.19-8.19c-2.65-1.52-6.08-2.29-10.21-2.29c-1.08,0-2.23,0.05-3.42,0.16
			c-7.52,0.67-14.28,3.04-20.1,7.04c-5.87,4.04-10.74,9-14.46,14.76c-3.73,5.78-6.27,11.81-7.57,17.95
			c-0.59,2.79-0.88,5.52-0.88,8.1c0,3.02,0.41,5.95,1.22,8.71c1.49,5.02,4.41,8.77,8.94,11.46c0.49,0.29,0.77,0.83,0.72,1.4
			s-0.41,1.06-0.94,1.27c-0.03,0.01-0.09,0.04-0.18,0.11c-0.04,0.03-0.09,0.07-0.14,0.09c-1.35,0.83-2.72,1.52-4.06,2.06
			c-1.43,0.57-3.21,0.94-5.46,1.14c-0.6,0.05-1.19,0.08-1.76,0.08c-4.56,0-8.26-1.68-11-5c-2.97-3.59-4.67-8.44-5.05-14.44
			c-0.06-0.84-0.1-1.71-0.1-2.56c0-5.07,0.98-10.66,2.91-16.63c2.17-6.84,5.84-13.68,10.89-20.33c5.05-6.65,11.69-12.61,19.74-17.72
			c4.82-2.93,10.54-5.49,17.03-7.64c6.52-2.15,13.14-3.54,19.69-4.12c2.29-0.2,4.51-0.31,6.59-0.31c6.65,0,12.29,1.06,16.78,3.15
			c5.96,2.77,10.34,6.85,13.01,12.12c2.62,5.18,3.96,11.03,3.96,17.4c0,8.38-1.28,15.95-3.8,22.5c-2.52,6.55-5.4,11.73-8.54,15.4
			c-3.08,3.92-7.53,7.94-13.18,11.92c-2.38,1.71-4.97,3.14-7.72,4.25c0.87,5.79,2.39,12.18,4.53,19.03
			c4.2,13.44,7.68,15.45,9.39,15.45c0.07,0,0.14,0,0.21-0.01c0.46-0.04,3.06-0.94,9.82-14.83l1.58-3.26
			c0.21-4.83,1.28-11.42,3.2-19.6c1.8-7.04,4.3-13.79,7.44-20.1c1.84-3.6,4.16-6.76,6.88-9.41c4.23-4.35,9.74-6.87,16.37-7.47
			c0.84-0.07,1.69-0.11,2.51-0.11c3.9,0,7.65,0.84,11.16,2.49c2.65,1.4,4.79,3.33,6.42,5.77c1.65,2.49,2.49,5.56,2.49,9.14
			c0,4.13-1.1,8.39-3.27,12.67c-1.85,3.66-4.3,6.88-7.29,9.56c-3.76,3.44-8.06,5.41-12.76,5.83c-0.34,0.03-0.68,0.05-1.02,0.05
			c-1.92,0-3.71-0.51-5.34-1.51c-0.95,5.1-1.43,8.71-1.43,10.76c0,3.44,0.39,6.1,1.16,7.9c1.43,2.9,3.08,3.24,4.19,3.24
			c0.14,0,0.28-0.01,0.43-0.02c3.59-0.32,7.01-1.77,10.18-4.31c3.18-2.46,6.16-5.58,8.88-9.31c1.52-2.11,3.01-4.4,4.42-6.8
			c0.54-3.77,1.4-8.19,2.57-13.16c1.8-7.05,4.3-13.8,7.44-20.1c1.84-3.6,4.16-6.76,6.88-9.41c4.24-4.36,9.75-6.88,16.37-7.46
			c0.85-0.08,1.7-0.11,2.52-0.11c3.89,0,7.64,0.84,11.15,2.49c2.65,1.4,4.79,3.33,6.41,5.77c1.65,2.49,2.49,5.56,2.49,9.14
			c0,4.13-1.1,8.39-3.27,12.66c-1.84,3.66-4.3,6.88-7.29,9.56c-3.76,3.44-8.06,5.41-12.76,5.83c-0.34,0.03-0.68,0.05-1.02,0.05
			c-1.92,0-3.71-0.51-5.34-1.51c-0.95,5.1-1.43,8.71-1.43,10.76c0,3.44,0.39,6.1,1.15,7.9c1.06,2.15,2.45,3.24,4.19,3.24
			c0.14,0,0.28-0.01,0.43-0.02c3.58-0.32,7.01-1.77,10.18-4.31c3.18-2.46,6.16-5.59,8.88-9.31c2.3-3.19,4.44-6.65,6.37-10.29
			c0.78-4,1.74-8.43,2.85-13.16c3.62-15.4,7.56-30.66,11.73-45.35c4.14-14.63,7.34-25.38,9.49-31.96c0.12-0.38,0.39-0.69,0.74-0.87
			c4.79-2.44,9.59-3.89,14.27-4.31c0.72-0.06,1.43-0.1,2.1-0.1c1.33,0,2.59,0.13,3.74,0.38c1.9,0.42,3.4,1.24,4.46,2.43
			c0.36,0.4,0.47,0.97,0.3,1.47c-1.9,5.57-4.99,15.67-9.18,30.03c-4.22,14.47-8.28,29.49-12.06,44.66
			c-3.77,15.11-5.68,25.82-5.68,31.81c0.05,2.13,0.52,2.53,0.52,2.54c0.43-0.04,1.88-0.47,4.74-4.48c2.27-3.2,4.61-7.05,6.94-11.44
			c2.37-4.47,4.51-8.82,6.36-12.92c1.86-4.11,3.23-7.37,4.08-9.69c0.22-0.6,0.78-0.98,1.4-0.98c0.09,0,0.17,0.01,0.26,0.02
			c0.71,0.13,1.23,0.75,1.23,1.47c0,0.84-0.2,2.61-1.94,8.29c-1.26,4.1-3.01,8.87-5.22,14.18c-2.23,5.36-4.81,10.64-7.67,15.7
			c-2.91,5.15-6.1,9.6-9.5,13.24c-3.58,3.82-7.27,5.92-10.98,6.25c-0.62,0.05-1.24,0.08-1.82,0.08c-4.71,0-8.28-1.77-10.62-5.25
			c-2.11-3.18-3.18-6.94-3.18-11.19c0-1.19,0.05-2.5,0.15-3.92c-3.5,5.77-7.63,10.91-12.27,15.28c-5.45,5.17-11.58,8.23-18.23,9.07
			l-0.51,0.05c-0.73,0.07-1.47,0.1-2.18,0.1c-5.49,0-10.38-1.95-14.52-5.79c-2.02-2.04-3.6-4.67-4.74-7.85
			c-0.66-1.86-1.13-3.96-1.41-6.28c-3.54,5.87-7.71,11.08-12.41,15.49c-5.44,5.17-11.57,8.23-18.22,9.07l-0.51,0.05
			c-0.73,0.06-1.46,0.1-2.18,0.1c-5.49,0-10.38-1.95-14.52-5.79c-2.02-2.04-3.6-4.66-4.74-7.84c-0.09-0.27-0.19-0.54-0.27-0.81
			c-3.92,8.71-7.2,14.43-9.99,17.42c-3.54,3.79-7.25,5.88-11.03,6.21c-0.59,0.05-1.17,0.08-1.74,0.08c-8.32,0-14.5-5.51-18.37-16.39
			c-3.81-10.71-6.5-21.74-8-32.82c-0.2-0.01-0.4-0.02-0.6-0.03c-4.15,17.18-7.68,31.85-10.59,44.03c-0.06,0.25-0.18,0.48-0.35,0.66
			c-2.95,3.2-7.11,5.45-12.38,6.69c-1.21,0.3-2.4,0.5-3.5,0.6C60.67,164.36,60.04,164.39,59.44,164.39z M164.72,105.93
			c0.51,0.26,1,0.39,1.44,0.39c0.07,0,0.14,0,0.2-0.01c1.64-0.14,3.27-1.45,4.82-3.87c1.75-2.61,3.1-5.58,4.03-8.85
			c1.29-5.08,1.96-9.02,1.96-11.67v-0.37c0-1.25-0.15-1.84-0.25-2.09c-0.76,0.14-1.54,0.64-2.33,1.5c-1.03,1.13-2.05,2.67-3.02,4.58
			c-1.6,3.16-3.08,6.94-4.39,11.23C166.27,99.81,165.44,102.89,164.72,105.93z M218.7,101.13c0.51,0.26,1,0.38,1.44,0.38
			c0.07,0,0.14,0,0.2-0.01c1.64-0.14,3.27-1.45,4.82-3.87c1.75-2.61,3.11-5.58,4.03-8.85c1.29-5.08,1.96-9.02,1.96-11.67v-0.37
			c0-1.25-0.15-1.84-0.25-2.09c-0.76,0.14-1.54,0.64-2.33,1.5c-1.03,1.12-2.05,2.66-3.02,4.57c-1.6,3.16-3.07,6.94-4.39,11.23
			C220.26,95.01,219.43,98.09,218.7,101.13z"/>
		<path class="st0" d="M288.24,11.78c1.23,0,2.38,0.11,3.42,0.34c1.58,0.35,2.81,1,3.66,1.97c-1.89,5.53-4.96,15.57-9.2,30.1
			c-4.24,14.53-8.27,29.43-12.08,44.72c-3.81,15.29-5.72,26.01-5.72,32.17c0.06,2.69,0.73,4.02,2.03,4.02c0.06,0,0.11,0,0.17-0.01
			c1.52-0.14,3.45-1.83,5.77-5.09c2.31-3.25,4.66-7.12,7.05-11.61c2.37-4.48,4.51-8.82,6.4-13.01c1.89-4.19,3.26-7.46,4.12-9.79
			c0,1.16-0.63,3.78-1.88,7.85c-1.25,4.08-2.97,8.76-5.17,14.05c-2.2,5.29-4.72,10.47-7.59,15.54c-2.87,5.08-5.97,9.39-9.29,12.95
			c-3.33,3.56-6.67,5.49-10.02,5.79c-0.58,0.05-1.14,0.08-1.69,0.08c-4.2,0-7.33-1.53-9.39-4.59c-1.95-2.93-2.93-6.39-2.93-10.35
			c0-2.94,0.33-6.64,0.96-11.08c-0.91,1.73-1.85,3.47-2.88,5.21c-3.6,6.18-7.84,11.56-12.71,16.14c-5.25,4.98-11.04,7.87-17.39,8.68
			l-0.45,0.04c-0.69,0.06-1.38,0.09-2.05,0.09c-5.13,0-9.63-1.79-13.51-5.39c-1.83-1.85-3.28-4.27-4.35-7.26
			c-1.07-2.99-1.6-6.61-1.6-10.88c0,0,0-0.01,0-0.01c-0.61,1.12-1.26,2.25-1.92,3.38c-3.6,6.18-7.84,11.56-12.72,16.14
			c-5.24,4.98-11.04,7.87-17.39,8.68l-0.45,0.04c-0.69,0.06-1.38,0.09-2.05,0.09c-5.13,0-9.63-1.8-13.51-5.39
			c-1.83-1.85-3.28-4.27-4.35-7.25c-0.54-1.53-0.95-3.22-1.21-5.09c-4.63,10.84-8.48,17.9-11.55,21.18
			c-3.29,3.52-6.65,5.44-10.07,5.74c-0.54,0.05-1.08,0.07-1.61,0.07c-7.66,0-13.31-5.13-16.97-15.4
			c-3.91-10.97-6.59-22.12-8.05-33.46c0.06-0.13,0.15-0.23,0.27-0.3c-1.16-0.02-2.29-0.07-3.38-0.15
			c-4.27,17.7-7.9,32.79-10.89,45.25c-2.75,2.99-6.62,5.07-11.63,6.25c-1.16,0.29-2.26,0.48-3.29,0.57
			c-0.6,0.05-1.18,0.08-1.74,0.08c-2.73,0-5.08-0.62-7.05-1.86c5.43-14.08,11.13-33.22,17.11-57.43
			c4.21-17.27,6.35-30.76,6.41-40.47c0-3.84-0.33-7.11-1.01-9.79c2.74-3.6,7.72-5.87,14.92-6.81c0.59-0.05,1.17-0.08,1.72-0.08
			c2.73,0,5.09,0.62,7.06,1.86c0,9.46-2.83,25.91-8.51,49.34c-0.55,2.31-1.1,4.55-1.65,6.73l1.2-0.1c4.75-0.42,9.66-2.78,14.73-7.07
			c5.06-4.29,8.77-9.38,11.12-15.26c2.35-5.89,3.52-13.31,3.52-22.28c0-4.76-0.79-9.06-2.38-12.92c-1.59-3.86-4.19-6.83-7.83-8.91
			c-2.89-1.66-6.54-2.49-10.95-2.49c-1.13,0-2.32,0.05-3.55,0.16c-7.81,0.7-14.75,3.13-20.82,7.29C67.41,46.98,62.46,52.05,58.61,58
			c-3.84,5.96-6.44,12.1-7.78,18.45c-0.61,2.92-0.92,5.72-0.92,8.4c0,3.17,0.43,6.22,1.28,9.13c1.58,5.35,4.79,9.46,9.61,12.32
			c-0.18,0.07-0.37,0.18-0.55,0.32c-1.28,0.78-2.56,1.43-3.84,1.94c-1.29,0.51-2.96,0.86-5.04,1.04c-0.56,0.05-1.1,0.07-1.63,0.07
			c-4.11,0-7.39-1.48-9.85-4.45c-2.78-3.35-4.35-7.88-4.71-13.58c-0.06-0.79-0.09-1.61-0.09-2.46c0-4.94,0.95-10.33,2.84-16.17
			c2.13-6.71,5.69-13.35,10.66-19.89c4.97-6.54,11.42-12.33,19.35-17.37c4.7-2.86,10.26-5.35,16.7-7.48
			c6.43-2.13,12.89-3.48,19.35-4.05c2.26-0.2,4.41-0.3,6.45-0.3c6.45,0,11.84,1,16.15,3.01c5.67,2.64,9.78,6.45,12.31,11.44
			c2.53,4.99,3.79,10.57,3.79,16.73c0,8.23-1.24,15.56-3.71,21.97c-2.47,6.41-5.23,11.4-8.28,14.97c-3.05,3.87-7.35,7.76-12.9,11.67
			c-2.62,1.88-5.46,3.39-8.5,4.51c0.85,6.21,2.44,13.02,4.76,20.44c3.43,11,7.04,16.5,10.81,16.5c0.11,0,0.23-0.01,0.35-0.02
			c2.38-0.21,6.05-5.43,11.03-15.67c0.6-1.23,1.17-2.41,1.72-3.55c0.17-4.79,1.23-11.33,3.18-19.63c1.77-6.93,4.21-13.52,7.32-19.77
			c1.77-3.45,3.96-6.45,6.59-9c4.02-4.14,9.18-6.49,15.46-7.05c0.8-0.07,1.6-0.11,2.38-0.11c3.7,0,7.2,0.78,10.53,2.35
			c2.37,1.25,4.31,3,5.81,5.25c1.49,2.25,2.24,5.02,2.24,8.31c0,3.91-1.03,7.91-3.11,11.99c-1.77,3.51-4.09,6.56-6.95,9.13
			c-3.54,3.25-7.5,5.06-11.9,5.45c-0.3,0.03-0.59,0.04-0.88,0.04c-2.38,0-4.49-0.9-6.35-2.69c-1.28,6.51-1.92,11-1.92,13.44
			c0,3.66,0.42,6.49,1.28,8.49c1.36,2.76,3.21,4.15,5.57,4.15c0.18,0,0.37-0.01,0.56-0.03c3.9-0.35,7.56-1.89,10.98-4.64
			c3.3-2.55,6.34-5.75,9.15-9.6c1.65-2.29,3.2-4.69,4.65-7.18c0.53-3.78,1.38-8.21,2.59-13.31c1.77-6.93,4.21-13.52,7.32-19.77
			c1.77-3.45,3.96-6.45,6.59-9c4.02-4.14,9.18-6.49,15.46-7.05c0.81-0.07,1.6-0.11,2.39-0.11c3.69,0,7.19,0.78,10.52,2.35
			c2.37,1.25,4.31,3,5.81,5.25c1.49,2.25,2.24,5.02,2.24,8.31c0,3.9-1.03,7.9-3.11,11.99c-1.77,3.51-4.09,6.56-6.95,9.13
			c-3.54,3.25-7.5,5.06-11.9,5.45c-0.3,0.03-0.59,0.04-0.89,0.04c-2.38,0-4.49-0.9-6.34-2.69c-1.28,6.52-1.92,11-1.92,13.44
			c0,3.66,0.42,6.49,1.27,8.49c1.36,2.76,3.21,4.15,5.57,4.15c0.18,0,0.37-0.01,0.56-0.03c3.9-0.34,7.56-1.89,10.98-4.63
			c3.3-2.55,6.34-5.75,9.15-9.6c2.4-3.34,4.6-6.9,6.59-10.67c0.78-4.02,1.74-8.46,2.88-13.32c3.63-15.45,7.54-30.55,11.71-45.28
			c4.18-14.74,7.33-25.37,9.47-31.91c4.64-2.36,9.21-3.75,13.73-4.15C286.95,11.81,287.61,11.78,288.24,11.78 M220.14,103.01
			c0.11,0,0.23-0.01,0.34-0.02c2.13-0.19,4.12-1.71,5.95-4.55c1.83-2.72,3.24-5.81,4.21-9.25c1.34-5.24,2.01-9.27,2.01-12.07v-0.37
			c0-2.41-0.51-3.61-1.53-3.61c-0.04,0-0.08,0-0.12,0.01c-1.22,0.11-2.39,0.78-3.52,2.01c-1.13,1.23-2.21,2.86-3.25,4.91
			c-1.65,3.26-3.14,7.08-4.48,11.47c-1.04,3.45-1.95,6.89-2.74,10.31C218.1,102.62,219.15,103.01,220.14,103.01 M166.16,107.81
			c0.11,0,0.22-0.01,0.34-0.01c2.14-0.19,4.12-1.71,5.95-4.55c1.83-2.72,3.24-5.81,4.21-9.25c1.34-5.25,2.01-9.27,2.01-12.07v-0.37
			c0-2.41-0.51-3.61-1.53-3.61c-0.04,0-0.08,0-0.12,0.01c-1.22,0.11-2.39,0.78-3.52,2.01c-1.13,1.23-2.21,2.87-3.25,4.91
			c-1.65,3.26-3.14,7.08-4.48,11.47c-1.04,3.45-1.95,6.89-2.74,10.31C164.11,107.42,165.16,107.81,166.16,107.81 M293.86,85.59
			L293.86,85.59 M288.24,8.79C288.24,8.79,288.24,8.79,288.24,8.79C288.24,8.79,288.24,8.79,288.24,8.79c-0.72,0-1.47,0.03-2.23,0.1
			c-4.88,0.43-9.86,1.94-14.82,4.46c-0.7,0.36-1.24,0.98-1.48,1.73c-2.16,6.61-5.36,17.38-9.5,32.02
			c-4.17,14.7-8.12,29.98-11.75,45.41c-1.09,4.67-2.04,9.03-2.82,13c-1.87,3.51-3.94,6.85-6.16,9.93c-2.62,3.6-5.5,6.62-8.55,8.98
			c-0.01,0.01-0.03,0.02-0.04,0.03c-2.98,2.39-6.04,3.69-9.37,3.99c-0.1,0.01-0.2,0.01-0.3,0.01c-0.49,0-1.65,0-2.85-2.4
			c-0.47-1.13-1.01-3.29-1.01-7.25c0-1.23,0.2-3.68,1.05-8.54c1.33,0.52,2.74,0.78,4.22,0.78c0.38,0,0.77-0.02,1.15-0.05
			c5.04-0.45,9.63-2.54,13.65-6.22c3.1-2.79,5.67-6.15,7.6-9.99c2.27-4.48,3.43-8.96,3.43-13.33c0-3.88-0.92-7.23-2.74-9.96
			c-1.77-2.66-4.09-4.75-6.9-6.24c-0.04-0.02-0.08-0.04-0.12-0.06c-3.71-1.74-7.67-2.63-11.79-2.63c-0.87,0-1.77,0.04-2.66,0.12
			c-6.97,0.62-12.79,3.28-17.31,7.91c-2.83,2.76-5.23,6.04-7.13,9.76c-3.2,6.42-5.73,13.27-7.55,20.4c0,0.02-0.01,0.04-0.01,0.06
			c-1.15,4.88-2.01,9.25-2.55,12.99c-1.34,2.27-2.75,4.43-4.2,6.44c-2.63,3.6-5.51,6.63-8.55,8.98c-0.02,0.01-0.03,0.02-0.05,0.04
			c-2.97,2.39-6.04,3.7-9.37,3.99c-0.1,0.01-0.2,0.01-0.3,0.01c-0.49,0-1.64,0-2.85-2.41c-0.47-1.13-1.01-3.29-1.01-7.24
			c0-1.23,0.2-3.69,1.05-8.54c1.33,0.52,2.74,0.78,4.22,0.78c0.38,0,0.77-0.02,1.15-0.05c5.04-0.45,9.63-2.54,13.65-6.22
			c3.1-2.78,5.67-6.15,7.6-9.98c2.27-4.48,3.43-8.97,3.43-13.33c0-3.87-0.92-7.23-2.74-9.96c-1.77-2.66-4.09-4.75-6.9-6.24
			c-0.04-0.02-0.08-0.04-0.12-0.06c-3.71-1.75-7.68-2.63-11.8-2.63c-0.87,0-1.76,0.04-2.64,0.12c-6.98,0.63-12.8,3.29-17.31,7.91
			c-2.83,2.76-5.23,6.04-7.14,9.75c-3.2,6.43-5.74,13.28-7.56,20.39c-0.01,0.02-0.01,0.04-0.01,0.06
			c-1.93,8.21-2.98,14.63-3.23,19.57l-0.32,0.65c-0.37,0.76-0.74,1.53-1.13,2.33c-5.68,11.68-8.21,13.69-8.75,14
			c-0.56-0.05-3.71-0.97-7.91-14.4c-1.98-6.33-3.42-12.26-4.3-17.67c2.45-1.08,4.78-2.41,6.94-3.97c5.72-4.03,10.26-8.14,13.47-12.2
			c3.24-3.8,6.19-9.11,8.76-15.79c2.59-6.73,3.91-14.48,3.91-23.04c0-6.61-1.39-12.69-4.12-18.08c-2.83-5.57-7.44-9.88-13.71-12.8
			c-4.68-2.18-10.54-3.28-17.41-3.28c-2.12,0-4.38,0.11-6.72,0.31c-6.66,0.59-13.4,2-20.03,4.19c-6.6,2.18-12.42,4.79-17.31,7.76
			c-0.02,0.01-0.03,0.02-0.05,0.03c-8.2,5.2-14.97,11.29-20.13,18.08c-5.16,6.79-8.91,13.79-11.13,20.79
			c-1.97,6.1-2.98,11.85-2.98,17.08c0,0.89,0.03,1.79,0.1,2.69c0.4,6.28,2.22,11.43,5.39,15.26c3.04,3.67,7.12,5.53,12.15,5.53
			c0.62,0,1.25-0.03,1.89-0.09c2.39-0.21,4.31-0.62,5.88-1.24c1.43-0.57,2.87-1.3,4.29-2.17c0.07-0.05,0.15-0.09,0.22-0.15
			c0.99-0.45,1.67-1.4,1.75-2.49c0.09-1.13-0.47-2.22-1.45-2.8c-4.19-2.49-6.9-5.96-8.27-10.61c-0.77-2.62-1.16-5.41-1.16-8.28
			c0-2.47,0.29-5.09,0.85-7.79c1.26-5.95,3.73-11.82,7.36-17.44c3.61-5.59,8.34-10.42,14.05-14.34c5.61-3.85,12.13-6.13,19.39-6.78
			c1.14-0.1,2.25-0.15,3.29-0.15c3.86,0,7.04,0.7,9.46,2.09c3.07,1.76,5.21,4.2,6.55,7.46c1.43,3.47,2.15,7.44,2.15,11.78
			c0,8.54-1.11,15.66-3.31,21.17c-2.15,5.39-5.61,10.13-10.27,14.09c-3.45,2.92-6.81,4.86-10.01,5.79c0.19-0.77,0.38-1.56,0.57-2.38
			c5.78-23.87,8.59-40.24,8.59-50.04c0-1.03-0.53-1.98-1.4-2.53c-2.45-1.54-5.35-2.32-8.65-2.32c-0.64,0-1.31,0.03-1.99,0.09
			c-0.04,0-0.09,0.01-0.13,0.01c-7.98,1.05-13.67,3.73-16.9,7.96c-0.55,0.72-0.74,1.66-0.52,2.54c0.61,2.42,0.92,5.47,0.92,9.06
			c-0.06,9.4-2.18,22.79-6.32,39.76c-5.92,23.96-11.64,43.16-17,57.06c-0.51,1.33-0.01,2.84,1.2,3.6c2.45,1.54,5.35,2.32,8.63,2.32
			c0.65,0,1.33-0.03,2.01-0.09c1.17-0.1,2.43-0.32,3.74-0.64c5.54-1.3,9.96-3.7,13.11-7.13c0.34-0.37,0.59-0.83,0.71-1.33
			c2.62-10.93,5.7-23.74,9.18-38.18c1.59,9.17,3.99,18.27,7.15,27.15c4.11,11.53,10.76,17.38,19.78,17.38
			c0.61,0,1.24-0.03,1.87-0.08c4.16-0.37,8.19-2.62,11.99-6.68c2.54-2.72,5.44-7.54,8.8-14.64c1.09,2.3,2.43,4.26,4.01,5.86
			c0.03,0.03,0.06,0.06,0.09,0.09c4.43,4.1,9.66,6.19,15.54,6.19c0.76,0,1.53-0.04,2.31-0.1l0.44-0.04c0.04,0,0.08-0.01,0.12-0.01
			c6.96-0.89,13.38-4.08,19.06-9.48c3.9-3.66,7.44-7.86,10.57-12.52c0.23,0.96,0.5,1.87,0.81,2.73c1.21,3.39,2.91,6.2,5.04,8.35
			c0.03,0.03,0.06,0.06,0.09,0.09c4.43,4.1,9.66,6.18,15.54,6.18c0.76,0,1.53-0.04,2.31-0.1l0.45-0.04c0.04,0,0.07-0.01,0.11-0.01
			c6.96-0.89,13.38-4.08,19.07-9.48c3.51-3.3,6.74-7.04,9.63-11.16c0.2,4.03,1.34,7.63,3.39,10.73c2.6,3.88,6.71,5.92,11.87,5.92
			c0.63,0,1.29-0.03,1.95-0.09c4.09-0.36,8.11-2.62,11.94-6.72c3.47-3.72,6.74-8.27,9.71-13.52c2.89-5.12,5.5-10.45,7.75-15.86
			c2.23-5.36,4-10.18,5.27-14.32c1.69-5.5,1.98-7.5,2.01-8.56c0-0.05,0-0.11,0-0.17c0-1.62-1.28-2.93-2.89-2.98
			c-0.03,0-0.07,0-0.1,0c-0.14,0-0.29,0.01-0.42,0.03c0,0,0,0,0,0c0,0,0,0,0,0c-0.52,0.08-1,0.29-1.4,0.6
			c-0.26,0.2-0.49,0.45-0.68,0.74c-0.13,0.2-0.24,0.42-0.32,0.65c-0.84,2.28-2.19,5.48-4.01,9.53c-1.84,4.07-3.96,8.39-6.32,12.84
			c-2.3,4.33-4.6,8.13-6.84,11.28c-1.11,1.55-1.94,2.48-2.54,3.04c0-0.09-0.01-0.17-0.01-0.27c0.01-5.88,1.9-16.45,5.64-31.42
			c3.78-15.15,7.83-30.15,12.04-44.6c4.18-14.34,7.26-24.42,9.16-29.97c0.35-1.02,0.12-2.14-0.59-2.95
			c-1.28-1.44-3.04-2.41-5.25-2.9C291.05,8.93,289.69,8.79,288.24,8.79L288.24,8.79L288.24,8.79z M220.52,99.97
			c0.63-2.51,1.32-5.05,2.08-7.58c1.28-4.19,2.73-7.89,4.29-10.99c0.91-1.78,1.84-3.2,2.77-4.22c-0.01,2.52-0.65,6.29-1.91,11.23
			c-0.89,3.11-2.17,5.92-3.81,8.36c-0.01,0.02-0.02,0.04-0.03,0.05C223.09,98.12,221.85,99.66,220.52,99.97L220.52,99.97z
			 M166.54,104.77c0.63-2.52,1.33-5.06,2.08-7.58c1.28-4.19,2.73-7.89,4.29-10.98c0.9-1.77,1.83-3.2,2.77-4.22
			c-0.01,2.52-0.65,6.3-1.91,11.23c-0.89,3.11-2.17,5.92-3.81,8.36c-0.01,0.02-0.02,0.04-0.03,0.05
			C169.1,102.92,167.86,104.46,166.54,104.77L166.54,104.77z"/>
	</g>
	<g>
		
			<image style="overflow:visible;opacity:0.38;" width="371" height="166" xlink:href="5ED134D3B50E058C.png"  transform="matrix(1 0 0 1 -11.1026 5.0043)">
		</image>
		<g>
			<g>
				<defs>
					<path id="SVGID_1_" d="M282.92,108.31c-2.37,4.47-4.72,8.32-7.02,11.56c-2.31,3.25-4.23,4.93-5.75,5.07
						c-1.4,0.12-2.13-1.21-2.19-4c0-6.14,1.9-16.82,5.7-32.05c3.8-15.23,7.81-30.08,12.03-44.55c4.22-14.48,7.28-24.47,9.16-29.99
						c-0.85-0.96-2.07-1.61-3.65-1.96c-1.58-0.34-3.37-0.43-5.38-0.25c-4.5,0.4-9.06,1.78-13.68,4.13
						c-2.13,6.51-5.27,17.11-9.43,31.79c-4.16,14.68-8.05,29.72-11.67,45.12c-1.14,4.84-2.09,9.26-2.87,13.27
						c-1.98,3.76-4.17,7.31-6.56,10.63c-2.8,3.83-5.83,7.02-9.12,9.56c-3.4,2.73-7.05,4.27-10.94,4.62
						c-2.61,0.23-4.65-1.14-6.11-4.11c-0.85-1.99-1.27-4.81-1.27-8.46c0-2.43,0.63-6.9,1.91-13.39c2.07,2.01,4.47,2.89,7.2,2.64
						c4.38-0.39,8.33-2.2,11.85-5.43c2.86-2.56,5.16-5.6,6.93-9.09c2.07-4.07,3.1-8.05,3.1-11.94c0-3.28-0.74-6.04-2.23-8.28
						c-1.49-2.24-3.42-3.98-5.79-5.23c-4.02-1.89-8.3-2.64-12.86-2.23c-6.26,0.55-11.39,2.9-15.4,7.02
						c-2.62,2.54-4.8,5.53-6.56,8.97c-3.1,6.23-5.53,12.8-7.29,19.7c-1.2,5.08-2.05,9.5-2.58,13.26c-1.45,2.48-2.99,4.88-4.63,7.16
						c-2.8,3.83-5.83,7.03-9.12,9.56c-3.4,2.74-7.05,4.28-10.94,4.62c-2.61,0.23-4.65-1.14-6.11-4.11
						c-0.85-1.99-1.27-4.81-1.27-8.45c0-2.43,0.63-6.9,1.91-13.39c2.07,2,4.47,2.88,7.2,2.64c4.38-0.39,8.32-2.2,11.85-5.43
						c2.86-2.56,5.16-5.59,6.93-9.09c2.06-4.07,3.1-8.06,3.1-11.95c0-3.28-0.74-6.04-2.23-8.28c-1.49-2.24-3.42-3.98-5.79-5.23
						c-4.02-1.89-8.3-2.64-12.86-2.23c-6.26,0.56-11.4,2.9-15.4,7.03c-2.62,2.54-4.8,5.53-6.56,8.97c-3.1,6.23-5.53,12.8-7.29,19.7
						c-1.94,8.27-2.99,14.79-3.16,19.56c-0.55,1.13-1.12,2.31-1.71,3.53c-4.96,10.2-8.62,15.4-10.99,15.61
						c-3.89,0.34-7.59-5.13-11.12-16.42c-2.31-7.39-3.89-14.19-4.74-20.37c3.04-1.12,5.86-2.61,8.47-4.49
						c5.53-3.9,9.82-7.77,12.86-11.63c3.04-3.55,5.79-8.52,8.25-14.91c2.46-6.39,3.69-13.68,3.69-21.89c0-6.14-1.26-11.7-3.78-16.67
						c-2.52-4.97-6.61-8.77-12.26-11.4c-5.65-2.63-13.16-3.53-22.52-2.7c-6.44,0.57-12.87,1.92-19.28,4.04
						c-6.42,2.12-11.96,4.61-16.64,7.45c-7.9,5.02-14.33,10.79-19.28,17.3c-4.96,6.52-8.5,13.13-10.62,19.82
						c-1.88,5.82-2.83,11.19-2.83,16.11c0,0.85,0.03,1.67,0.09,2.46c0.36,5.68,1.93,10.19,4.7,13.53c2.76,3.34,6.58,4.79,11.44,4.36
						c2.07-0.18,3.74-0.53,5.02-1.04c1.27-0.51,2.55-1.16,3.83-1.94c0.18-0.14,0.36-0.25,0.55-0.32c-4.8-2.86-7.99-6.95-9.57-12.28
						c-0.85-2.9-1.28-5.93-1.28-9.1c0-2.67,0.3-5.46,0.91-8.37c1.34-6.32,3.92-12.44,7.75-18.38c3.83-5.93,8.77-10.97,14.81-15.13
						c6.05-4.15,12.96-6.57,20.74-7.27c6.02-0.54,10.83,0.24,14.45,2.32c3.62,2.08,6.22,5.04,7.8,8.88
						c1.58,3.84,2.37,8.13,2.37,12.87c0,8.94-1.17,16.33-3.51,22.2c-2.34,5.86-6.03,10.93-11.08,15.2
						c-5.05,4.28-9.94,6.63-14.68,7.05l-1.19,0.1c0.55-2.17,1.09-4.41,1.64-6.71c5.65-23.35,8.48-39.74,8.48-49.17
						c-2.37-1.49-5.29-2.08-8.75-1.77c-7.17,0.94-12.13,3.21-14.86,6.79c0.67,2.68,1,5.93,1,9.76c-0.06,9.67-2.19,23.11-6.38,40.32
						c-5.96,24.12-11.64,43.19-17.05,57.22c2.37,1.49,5.29,2.08,8.75,1.77c1.03-0.09,2.13-0.28,3.28-0.56
						c4.98-1.17,8.84-3.25,11.58-6.23c2.97-12.42,6.59-27.45,10.85-45.09c1.09,0.08,2.22,0.14,3.37,0.15
						c-0.12,0.07-0.22,0.17-0.27,0.3c1.46,11.3,4.13,22.41,8.02,33.34c3.89,10.93,10.06,16.02,18.51,15.27
						c3.41-0.3,6.75-2.21,10.03-5.72c3.06-3.27,6.89-10.31,11.51-21.11c0.27,1.86,0.67,3.55,1.21,5.07
						c1.07,2.97,2.51,5.38,4.33,7.23c4.37,4.05,9.54,5.81,15.5,5.28l0.45-0.04c6.32-0.81,12.1-3.69,17.32-8.65
						c4.86-4.57,9.09-9.93,12.68-16.08c0.66-1.12,1.3-2.25,1.91-3.37c0,0,0,0,0,0.01c0,4.25,0.53,7.87,1.6,10.84
						c1.07,2.98,2.51,5.39,4.33,7.23c4.37,4.05,9.54,5.81,15.5,5.28l0.45-0.04c6.32-0.81,12.1-3.69,17.33-8.65
						c4.86-4.57,9.08-9.93,12.67-16.08c1.03-1.74,1.97-3.47,2.87-5.19c-0.63,4.42-0.96,8.1-0.96,11.04c0,3.95,0.97,7.39,2.92,10.32
						c2.31,3.44,5.99,4.94,11.03,4.49c3.34-0.3,6.67-2.22,9.99-5.76c3.31-3.55,6.39-7.85,9.25-12.9c2.86-5.05,5.37-10.22,7.56-15.49
						c2.19-5.27,3.91-9.93,5.15-14c1.25-4.06,1.87-6.67,1.87-7.83c-0.85,2.33-2.22,5.58-4.1,9.76
						C287.41,99.53,285.28,103.85,282.92,108.31z M219.55,91.52c1.34-4.37,2.83-8.18,4.47-11.43c1.03-2.04,2.11-3.67,3.24-4.89
						c1.12-1.22,2.29-1.89,3.51-2c1.1-0.1,1.65,1.1,1.65,3.59v0.37c0,2.79-0.67,6.8-2,12.03c-0.97,3.43-2.37,6.5-4.2,9.21
						c-1.82,2.84-3.8,4.35-5.92,4.54c-1.09,0.1-2.25-0.28-3.46-1.15C217.6,98.38,218.52,94.95,219.55,91.52z M165.76,96.3
						c1.34-4.37,2.83-8.18,4.47-11.43c1.03-2.04,2.11-3.66,3.24-4.89c1.12-1.22,2.29-1.89,3.5-2c1.1-0.1,1.65,1.1,1.65,3.59v0.37
						c0,2.79-0.67,6.8-2,12.03c-0.97,3.43-2.37,6.5-4.2,9.22c-1.82,2.83-3.8,4.35-5.93,4.54c-1.09,0.1-2.25-0.29-3.46-1.15
						C163.81,103.16,164.72,99.73,165.76,96.3z"/>
				</defs>
				<clipPath id="SVGID_2_">
					<use xlink:href="#SVGID_1_"  style="overflow:visible;"/>
				</clipPath>
			</g>
			<g>
				<defs>
					<path id="SVGID_3_" d="M282.92,108.31c-2.37,4.47-4.72,8.32-7.02,11.56c-2.31,3.25-4.23,4.93-5.75,5.07
						c-1.4,0.12-2.13-1.21-2.19-4c0-6.14,1.9-16.82,5.7-32.05c3.8-15.23,7.81-30.08,12.03-44.55c4.22-14.48,7.28-24.47,9.16-29.99
						c-0.85-0.96-2.07-1.61-3.65-1.96c-1.58-0.34-3.37-0.43-5.38-0.25c-4.5,0.4-9.06,1.78-13.68,4.13
						c-2.13,6.51-5.27,17.11-9.43,31.79c-4.16,14.68-8.05,29.72-11.67,45.12c-1.14,4.84-2.09,9.26-2.87,13.27
						c-1.98,3.76-4.17,7.31-6.56,10.63c-2.8,3.83-5.83,7.02-9.12,9.56c-3.4,2.73-7.05,4.27-10.94,4.62
						c-2.61,0.23-4.65-1.14-6.11-4.11c-0.85-1.99-1.27-4.81-1.27-8.46c0-2.43,0.63-6.9,1.91-13.39c2.07,2.01,4.47,2.89,7.2,2.64
						c4.38-0.39,8.33-2.2,11.85-5.43c2.86-2.56,5.16-5.6,6.93-9.09c2.07-4.07,3.1-8.05,3.1-11.94c0-3.28-0.74-6.04-2.23-8.28
						c-1.49-2.24-3.42-3.98-5.79-5.23c-4.02-1.89-8.3-2.64-12.86-2.23c-6.26,0.55-11.39,2.9-15.4,7.02
						c-2.62,2.54-4.8,5.53-6.56,8.97c-3.1,6.23-5.53,12.8-7.29,19.7c-1.2,5.08-2.05,9.5-2.58,13.26c-1.45,2.48-2.99,4.88-4.63,7.16
						c-2.8,3.83-5.83,7.03-9.12,9.56c-3.4,2.74-7.05,4.28-10.94,4.62c-2.61,0.23-4.65-1.14-6.11-4.11
						c-0.85-1.99-1.27-4.81-1.27-8.45c0-2.43,0.63-6.9,1.91-13.39c2.07,2,4.47,2.88,7.2,2.64c4.38-0.39,8.32-2.2,11.85-5.43
						c2.86-2.56,5.16-5.59,6.93-9.09c2.06-4.07,3.1-8.06,3.1-11.95c0-3.28-0.74-6.04-2.23-8.28c-1.49-2.24-3.42-3.98-5.79-5.23
						c-4.02-1.89-8.3-2.64-12.86-2.23c-6.26,0.56-11.4,2.9-15.4,7.03c-2.62,2.54-4.8,5.53-6.56,8.97c-3.1,6.23-5.53,12.8-7.29,19.7
						c-1.94,8.27-2.99,14.79-3.16,19.56c-0.55,1.13-1.12,2.31-1.71,3.53c-4.96,10.2-8.62,15.4-10.99,15.61
						c-3.89,0.34-7.59-5.13-11.12-16.42c-2.31-7.39-3.89-14.19-4.74-20.37c3.04-1.12,5.86-2.61,8.47-4.49
						c5.53-3.9,9.82-7.77,12.86-11.63c3.04-3.55,5.79-8.52,8.25-14.91c2.46-6.39,3.69-13.68,3.69-21.89c0-6.14-1.26-11.7-3.78-16.67
						c-2.52-4.97-6.61-8.77-12.26-11.4c-5.65-2.63-13.16-3.53-22.52-2.7c-6.44,0.57-12.87,1.92-19.28,4.04
						c-6.42,2.12-11.96,4.61-16.64,7.45c-7.9,5.02-14.33,10.79-19.28,17.3c-4.96,6.52-8.5,13.13-10.62,19.82
						c-1.88,5.82-2.83,11.19-2.83,16.11c0,0.85,0.03,1.67,0.09,2.46c0.36,5.68,1.93,10.19,4.7,13.53c2.76,3.34,6.58,4.79,11.44,4.36
						c2.07-0.18,3.74-0.53,5.02-1.04c1.27-0.51,2.55-1.16,3.83-1.94c0.18-0.14,0.36-0.25,0.55-0.32c-4.8-2.86-7.99-6.95-9.57-12.28
						c-0.85-2.9-1.28-5.93-1.28-9.1c0-2.67,0.3-5.46,0.91-8.37c1.34-6.32,3.92-12.44,7.75-18.38c3.83-5.93,8.77-10.97,14.81-15.13
						c6.05-4.15,12.96-6.57,20.74-7.27c6.02-0.54,10.83,0.24,14.45,2.32c3.62,2.08,6.22,5.04,7.8,8.88
						c1.58,3.84,2.37,8.13,2.37,12.87c0,8.94-1.17,16.33-3.51,22.2c-2.34,5.86-6.03,10.93-11.08,15.2
						c-5.05,4.28-9.94,6.63-14.68,7.05l-1.19,0.1c0.55-2.17,1.09-4.41,1.64-6.71c5.65-23.35,8.48-39.74,8.48-49.17
						c-2.37-1.49-5.29-2.08-8.75-1.77c-7.17,0.94-12.13,3.21-14.86,6.79c0.67,2.68,1,5.93,1,9.76c-0.06,9.67-2.19,23.11-6.38,40.32
						c-5.96,24.12-11.64,43.19-17.05,57.22c2.37,1.49,5.29,2.08,8.75,1.77c1.03-0.09,2.13-0.28,3.28-0.56
						c4.98-1.17,8.84-3.25,11.58-6.23c2.97-12.42,6.59-27.45,10.85-45.09c1.09,0.08,2.22,0.14,3.37,0.15
						c-0.12,0.07-0.22,0.17-0.27,0.3c1.46,11.3,4.13,22.41,8.02,33.34c3.89,10.93,10.06,16.02,18.51,15.27
						c3.41-0.3,6.75-2.21,10.03-5.72c3.06-3.27,6.89-10.31,11.51-21.11c0.27,1.86,0.67,3.55,1.21,5.07
						c1.07,2.97,2.51,5.38,4.33,7.23c4.37,4.05,9.54,5.81,15.5,5.28l0.45-0.04c6.32-0.81,12.1-3.69,17.32-8.65
						c4.86-4.57,9.09-9.93,12.68-16.08c0.66-1.12,1.3-2.25,1.91-3.37c0,0,0,0,0,0.01c0,4.25,0.53,7.87,1.6,10.84
						c1.07,2.98,2.51,5.39,4.33,7.23c4.37,4.05,9.54,5.81,15.5,5.28l0.45-0.04c6.32-0.81,12.1-3.69,17.33-8.65
						c4.86-4.57,9.08-9.93,12.67-16.08c1.03-1.74,1.97-3.47,2.87-5.19c-0.63,4.42-0.96,8.1-0.96,11.04c0,3.95,0.97,7.39,2.92,10.32
						c2.31,3.44,5.99,4.94,11.03,4.49c3.34-0.3,6.67-2.22,9.99-5.76c3.31-3.55,6.39-7.85,9.25-12.9c2.86-5.05,5.37-10.22,7.56-15.49
						c2.19-5.27,3.91-9.93,5.15-14c1.25-4.06,1.87-6.67,1.87-7.83c-0.85,2.33-2.22,5.58-4.1,9.76
						C287.41,99.53,285.28,103.85,282.92,108.31z M219.55,91.52c1.34-4.37,2.83-8.18,4.47-11.43c1.03-2.04,2.11-3.67,3.24-4.89
						c1.12-1.22,2.29-1.89,3.51-2c1.1-0.1,1.65,1.1,1.65,3.59v0.37c0,2.79-0.67,6.8-2,12.03c-0.97,3.43-2.37,6.5-4.2,9.21
						c-1.82,2.84-3.8,4.35-5.92,4.54c-1.09,0.1-2.25-0.28-3.46-1.15C217.6,98.38,218.52,94.95,219.55,91.52z M165.76,96.3
						c1.34-4.37,2.83-8.18,4.47-11.43c1.03-2.04,2.11-3.66,3.24-4.89c1.12-1.22,2.29-1.89,3.5-2c1.1-0.1,1.65,1.1,1.65,3.59v0.37
						c0,2.79-0.67,6.8-2,12.03c-0.97,3.43-2.37,6.5-4.2,9.22c-1.82,2.83-3.8,4.35-5.93,4.54c-1.09,0.1-2.25-0.29-3.46-1.15
						C163.81,103.16,164.72,99.73,165.76,96.3z"/>
				</defs>
				<clipPath id="SVGID_4_">
					<use xlink:href="#SVGID_3_"  style="overflow:visible;"/>
				</clipPath>
				<linearGradient id="SVGID_5_" gradientUnits="userSpaceOnUse" x1="172.6016" y1="165.174" x2="172.6016" y2="8.0781">
					<stop  offset="0" style="stop-color:#E69D00"/>
					<stop  offset="0.3878" style="stop-color:#F3B303"/>
					<stop  offset="0.7975" style="stop-color:#FFC505"/>
				</linearGradient>
				<rect x="-8.13" y="8.08" class="st1" width="361.46" height="157.1"/>
				
					<use xlink:href="#SVGID_3_"  style="overflow:visible;fill:none;stroke:#979798;stroke-width:0.4265;stroke-linecap:round;stroke-linejoin:round;stroke-miterlimit:10;"/>
			</g>
			<g>
				<defs>
					<path id="SVGID_6_" d="M282.92,108.31c-2.37,4.47-4.72,8.32-7.02,11.56c-2.31,3.25-4.23,4.93-5.75,5.07
						c-1.4,0.12-2.13-1.21-2.19-4c0-6.14,1.9-16.82,5.7-32.05c3.8-15.23,7.81-30.08,12.03-44.55c4.22-14.48,7.28-24.47,9.16-29.99
						c-0.85-0.96-2.07-1.61-3.65-1.96c-1.58-0.34-3.37-0.43-5.38-0.25c-4.5,0.4-9.06,1.78-13.68,4.13
						c-2.13,6.51-5.27,17.11-9.43,31.79c-4.16,14.68-8.05,29.72-11.67,45.12c-1.14,4.84-2.09,9.26-2.87,13.27
						c-1.98,3.76-4.17,7.31-6.56,10.63c-2.8,3.83-5.83,7.02-9.12,9.56c-3.4,2.73-7.05,4.27-10.94,4.62
						c-2.61,0.23-4.65-1.14-6.11-4.11c-0.85-1.99-1.27-4.81-1.27-8.46c0-2.43,0.63-6.9,1.91-13.39c2.07,2.01,4.47,2.89,7.2,2.64
						c4.38-0.39,8.33-2.2,11.85-5.43c2.86-2.56,5.16-5.6,6.93-9.09c2.07-4.07,3.1-8.05,3.1-11.94c0-3.28-0.74-6.04-2.23-8.28
						c-1.49-2.24-3.42-3.98-5.79-5.23c-4.02-1.89-8.3-2.64-12.86-2.23c-6.26,0.55-11.39,2.9-15.4,7.02
						c-2.62,2.54-4.8,5.53-6.56,8.97c-3.1,6.23-5.53,12.8-7.29,19.7c-1.2,5.08-2.05,9.5-2.58,13.26c-1.45,2.48-2.99,4.88-4.63,7.16
						c-2.8,3.83-5.83,7.03-9.12,9.56c-3.4,2.74-7.05,4.28-10.94,4.62c-2.61,0.23-4.65-1.14-6.11-4.11
						c-0.85-1.99-1.27-4.81-1.27-8.45c0-2.43,0.63-6.9,1.91-13.39c2.07,2,4.47,2.88,7.2,2.64c4.38-0.39,8.32-2.2,11.85-5.43
						c2.86-2.56,5.16-5.59,6.93-9.09c2.06-4.07,3.1-8.06,3.1-11.95c0-3.28-0.74-6.04-2.23-8.28c-1.49-2.24-3.42-3.98-5.79-5.23
						c-4.02-1.89-8.3-2.64-12.86-2.23c-6.26,0.56-11.4,2.9-15.4,7.03c-2.62,2.54-4.8,5.53-6.56,8.97c-3.1,6.23-5.53,12.8-7.29,19.7
						c-1.94,8.27-2.99,14.79-3.16,19.56c-0.55,1.13-1.12,2.31-1.71,3.53c-4.96,10.2-8.62,15.4-10.99,15.61
						c-3.89,0.34-7.59-5.13-11.12-16.42c-2.31-7.39-3.89-14.19-4.74-20.37c3.04-1.12,5.86-2.61,8.47-4.49
						c5.53-3.9,9.82-7.77,12.86-11.63c3.04-3.55,5.79-8.52,8.25-14.91c2.46-6.39,3.69-13.68,3.69-21.89c0-6.14-1.26-11.7-3.78-16.67
						c-2.52-4.97-6.61-8.77-12.26-11.4c-5.65-2.63-13.16-3.53-22.52-2.7c-6.44,0.57-12.87,1.92-19.28,4.04
						c-6.42,2.12-11.96,4.61-16.64,7.45c-7.9,5.02-14.33,10.79-19.28,17.3c-4.96,6.52-8.5,13.13-10.62,19.82
						c-1.88,5.82-2.83,11.19-2.83,16.11c0,0.85,0.03,1.67,0.09,2.46c0.36,5.68,1.93,10.19,4.7,13.53c2.76,3.34,6.58,4.79,11.44,4.36
						c2.07-0.18,3.74-0.53,5.02-1.04c1.27-0.51,2.55-1.16,3.83-1.94c0.18-0.14,0.36-0.25,0.55-0.32c-4.8-2.86-7.99-6.95-9.57-12.28
						c-0.85-2.9-1.28-5.93-1.28-9.1c0-2.67,0.3-5.46,0.91-8.37c1.34-6.32,3.92-12.44,7.75-18.38c3.83-5.93,8.77-10.97,14.81-15.13
						c6.05-4.15,12.96-6.57,20.74-7.27c6.02-0.54,10.83,0.24,14.45,2.32c3.62,2.08,6.22,5.04,7.8,8.88
						c1.58,3.84,2.37,8.13,2.37,12.87c0,8.94-1.17,16.33-3.51,22.2c-2.34,5.86-6.03,10.93-11.08,15.2
						c-5.05,4.28-9.94,6.63-14.68,7.05l-1.19,0.1c0.55-2.17,1.09-4.41,1.64-6.71c5.65-23.35,8.48-39.74,8.48-49.17
						c-2.37-1.49-5.29-2.08-8.75-1.77c-7.17,0.94-12.13,3.21-14.86,6.79c0.67,2.68,1,5.93,1,9.76c-0.06,9.67-2.19,23.11-6.38,40.32
						c-5.96,24.12-11.64,43.19-17.05,57.22c2.37,1.49,5.29,2.08,8.75,1.77c1.03-0.09,2.13-0.28,3.28-0.56
						c4.98-1.17,8.84-3.25,11.58-6.23c2.97-12.42,6.59-27.45,10.85-45.09c1.09,0.08,2.22,0.14,3.37,0.15
						c-0.12,0.07-0.22,0.17-0.27,0.3c1.46,11.3,4.13,22.41,8.02,33.34c3.89,10.93,10.06,16.02,18.51,15.27
						c3.41-0.3,6.75-2.21,10.03-5.72c3.06-3.27,6.89-10.31,11.51-21.11c0.27,1.86,0.67,3.55,1.21,5.07
						c1.07,2.97,2.51,5.38,4.33,7.23c4.37,4.05,9.54,5.81,15.5,5.28l0.45-0.04c6.32-0.81,12.1-3.69,17.32-8.65
						c4.86-4.57,9.09-9.93,12.68-16.08c0.66-1.12,1.3-2.25,1.91-3.37c0,0,0,0,0,0.01c0,4.25,0.53,7.87,1.6,10.84
						c1.07,2.98,2.51,5.39,4.33,7.23c4.37,4.05,9.54,5.81,15.5,5.28l0.45-0.04c6.32-0.81,12.1-3.69,17.33-8.65
						c4.86-4.57,9.08-9.93,12.67-16.08c1.03-1.74,1.97-3.47,2.87-5.19c-0.63,4.42-0.96,8.1-0.96,11.04c0,3.95,0.97,7.39,2.92,10.32
						c2.31,3.44,5.99,4.94,11.03,4.49c3.34-0.3,6.67-2.22,9.99-5.76c3.31-3.55,6.39-7.85,9.25-12.9c2.86-5.05,5.37-10.22,7.56-15.49
						c2.19-5.27,3.91-9.93,5.15-14c1.25-4.06,1.87-6.67,1.87-7.83c-0.85,2.33-2.22,5.58-4.1,9.76
						C287.41,99.53,285.28,103.85,282.92,108.31z M219.55,91.52c1.34-4.37,2.83-8.18,4.47-11.43c1.03-2.04,2.11-3.67,3.24-4.89
						c1.12-1.22,2.29-1.89,3.51-2c1.1-0.1,1.65,1.1,1.65,3.59v0.37c0,2.79-0.67,6.8-2,12.03c-0.97,3.43-2.37,6.5-4.2,9.21
						c-1.82,2.84-3.8,4.35-5.92,4.54c-1.09,0.1-2.25-0.28-3.46-1.15C217.6,98.38,218.52,94.95,219.55,91.52z M165.76,96.3
						c1.34-4.37,2.83-8.18,4.47-11.43c1.03-2.04,2.11-3.66,3.24-4.89c1.12-1.22,2.29-1.89,3.5-2c1.1-0.1,1.65,1.1,1.65,3.59v0.37
						c0,2.79-0.67,6.8-2,12.03c-0.97,3.43-2.37,6.5-4.2,9.22c-1.82,2.83-3.8,4.35-5.93,4.54c-1.09,0.1-2.25-0.29-3.46-1.15
						C163.81,103.16,164.72,99.73,165.76,96.3z"/>
				</defs>
				<clipPath id="SVGID_7_">
					<use xlink:href="#SVGID_6_"  style="overflow:visible;"/>
				</clipPath>
			</g>
		</g>
	</g>
</g>
</svg>
